<svg width="23" height="18" viewBox="0 0 23 18" fill="none" xmlns="http://www.w3.org/2000/svg">
<path d="M20.25 13.5V15.75C20.25 15.9489 20.171 16.1397 20.0303 16.2803C19.8897 16.421 19.6989 16.5 19.5 16.5H17.25C17.0511 16.5 16.8603 16.421 16.7197 16.2803C16.579 16.1397 16.5 15.9489 16.5 15.75V13.5M20.25 13.5H2.25M20.25 13.5V7.5L17.448 1.1954C17.389 1.06282 17.2929 0.950185 17.1713 0.87113C17.0496 0.792076 16.9077 0.75 16.7626 0.75H5.73741C5.59233 0.75 5.45037 0.792077 5.32872 0.871131C5.20708 0.950185 5.11097 1.06282 5.05205 1.1954L2.25 7.5V13.5M6 13.5V15.75C6 15.9489 5.92098 16.1397 5.78033 16.2803C5.63968 16.421 5.44891 16.5 5.25 16.5H3C2.80109 16.5 2.61032 16.421 2.46967 16.2803C2.32902 16.1397 2.25 15.9489 2.25 15.75V13.5M15.75 10.5H17.25M5.25 10.5H6.75M0.75 7.5H21.75" stroke="#191616" stroke-width="1.5" stroke-linecap="round" stroke-linejoin="round"/>
</svg>
