<svg width="14" height="14" viewBox="0 0 14 14" fill="none" xmlns="http://www.w3.org/2000/svg">
<path d="M8.49963 12.4996V9.49953C8.49963 9.36693 8.44696 9.23975 8.35319 9.14598C8.25942 9.05221 8.13224 8.99953 7.99963 8.99953H5.99963C5.86703 8.99953 5.73985 9.05221 5.64608 9.14598C5.55231 9.23975 5.49963 9.36693 5.49963 9.49953V12.4996C5.49963 12.6322 5.44696 12.7594 5.35321 12.8531C5.25945 12.9469 5.13229 12.9996 4.9997 12.9996L2.00006 13C1.9344 13 1.86937 12.9871 1.8087 12.9619C1.74803 12.9368 1.6929 12.9 1.64647 12.8536C1.60003 12.8071 1.5632 12.752 1.53807 12.6913C1.51293 12.6307 1.5 12.5657 1.5 12.5V6.72122C1.5 6.65156 1.51456 6.58267 1.54273 6.51896C1.57091 6.45525 1.61209 6.39814 1.66363 6.35128L6.66329 1.80535C6.75532 1.72167 6.87525 1.6753 6.99964 1.67529C7.12403 1.67529 7.24396 1.72165 7.336 1.80533L12.3363 6.35127C12.3879 6.39814 12.4291 6.45525 12.4573 6.51896C12.4854 6.58267 12.5 6.65157 12.5 6.72124V12.5C12.5 12.5657 12.4871 12.6307 12.4619 12.6914C12.4368 12.752 12.4 12.8071 12.3535 12.8536C12.3071 12.9 12.252 12.9368 12.1913 12.962C12.1306 12.9871 12.0656 13 11.9999 13L8.99957 12.9996C8.86697 12.9996 8.73981 12.9469 8.64606 12.8531C8.5523 12.7594 8.49963 12.6322 8.49963 12.4996V12.4996Z" stroke="#213129" stroke-width="1.5" stroke-linecap="round" stroke-linejoin="round"/>
</svg>
