<svg width="24" height="25" viewBox="0 0 24 25" fill="none" xmlns="http://www.w3.org/2000/svg">
<path d="M8.24914 12.6653L16.6789 20.0835C16.7764 20.1693 16.8946 20.2284 17.0218 20.2548C17.149 20.2812 17.2809 20.2742 17.4045 20.2343C17.5282 20.1944 17.6394 20.1231 17.7272 20.0273C17.815 19.9316 17.8764 19.8147 17.9054 19.688L21.4317 4.30059C21.4622 4.16755 21.4558 4.02871 21.4132 3.89904C21.3706 3.76936 21.2934 3.65377 21.19 3.56471C21.0866 3.47565 20.9608 3.41651 20.8262 3.39365C20.6917 3.37079 20.5534 3.38509 20.4264 3.43499L3.1242 10.2323C2.97341 10.2915 2.84585 10.398 2.76062 10.5358C2.67538 10.6736 2.63706 10.8352 2.65137 10.9966C2.66569 11.158 2.73187 11.3104 2.84002 11.431C2.94818 11.5516 3.09248 11.634 3.25135 11.6658L8.24914 12.6653ZM8.24914 12.6653L8.24914 18.7696C8.24914 18.9179 8.29313 19.0629 8.37554 19.1862C8.45795 19.3096 8.57509 19.4057 8.71213 19.4625C8.84917 19.5192 8.99997 19.5341 9.14546 19.5051C9.29095 19.4762 9.42458 19.4048 9.52947 19.2999L12.4592 16.3702M8.24914 12.6653L21.0097 3.44941" stroke="#111815" stroke-width="1.5" stroke-linecap="round" stroke-linejoin="round"/>
</svg>
