<svg width="44" height="45" viewBox="0 0 44 45" fill="none" xmlns="http://www.w3.org/2000/svg">
<path fill-rule="evenodd" clip-rule="evenodd" d="M10.75 12.5858C10.75 12.1716 11.0858 11.8358 11.5 11.8358H13.1922C13.5435 11.8358 13.8837 11.9591 14.1534 12.1842C14.4231 12.4093 14.6052 12.7219 14.6681 13.0675L15.1259 15.5858H30.25C30.4724 15.5858 30.6833 15.6845 30.8258 15.8553C30.9683 16.026 31.0277 16.2512 30.9879 16.47L29.8482 22.7383C29.7539 23.2567 29.4807 23.7256 29.0762 24.0633C28.6716 24.4009 28.1614 24.5858 27.6345 24.5858H16.7623L17.1714 26.8358H27.25C28.6997 26.8358 29.875 28.0111 29.875 29.4608C29.875 30.9106 28.6997 32.0858 27.25 32.0858C25.8003 32.0858 24.625 30.9106 24.625 29.4608C24.625 29.0582 24.7156 28.6768 24.8776 28.3358H19.8724C20.0344 28.6768 20.125 29.0582 20.125 29.4608C20.125 30.9106 18.9497 32.0858 17.5 32.0858C16.0503 32.0858 14.875 30.9106 14.875 29.4608C14.875 28.6758 15.2196 27.9713 15.7658 27.4902L15.1284 23.9846C15.1266 23.9755 15.1249 23.9663 15.1234 23.957L13.7647 16.4845C13.7629 16.4755 13.7613 16.4663 13.7598 16.4571L13.1922 13.3358L11.5 13.3358C11.0858 13.3358 10.75 13 10.75 12.5858ZM15.3987 17.0858L16.4896 23.0858H27.6345C27.8101 23.0858 27.9802 23.0242 28.1151 22.9116C28.2499 22.7991 28.341 22.6428 28.3724 22.47L29.3513 17.0858H15.3987ZM17.5 28.3358C16.8787 28.3358 16.375 28.8395 16.375 29.4608C16.375 30.0821 16.8787 30.5858 17.5 30.5858C18.1213 30.5858 18.625 30.0821 18.625 29.4608C18.625 28.8395 18.1213 28.3358 17.5 28.3358ZM27.25 28.3358C26.6287 28.3358 26.125 28.8395 26.125 29.4608C26.125 30.0821 26.6287 30.5858 27.25 30.5858C27.8713 30.5858 28.375 30.0821 28.375 29.4608C28.375 28.8395 27.8713 28.3358 27.25 28.3358Z" fill="#77A28D"/>
</svg>
