<svg width="44" height="45" viewBox="0 0 44 45" fill="none" xmlns="http://www.w3.org/2000/svg">
<path fill-rule="evenodd" clip-rule="evenodd" d="M10.75 12.9608C10.75 12.5466 11.0858 12.2108 11.5 12.2108H13.1922C13.5435 12.2108 13.8837 12.3341 14.1534 12.5592C14.4231 12.7843 14.6052 13.0969 14.6681 13.4425L15.1259 15.9608H30.25C30.4724 15.9608 30.6833 16.0595 30.8258 16.2303C30.9683 16.401 31.0277 16.6262 30.9879 16.845L29.8482 23.1133C29.7539 23.6317 29.4807 24.1006 29.0762 24.4383C28.6716 24.7759 28.1614 24.9608 27.6345 24.9608H16.7623L17.1714 27.2108H27.25C28.6997 27.2108 29.875 28.3861 29.875 29.8358C29.875 31.2856 28.6997 32.4608 27.25 32.4608C25.8003 32.4608 24.625 31.2856 24.625 29.8358C24.625 29.4332 24.7156 29.0518 24.8776 28.7108H19.8724C20.0344 29.0518 20.125 29.4332 20.125 29.8358C20.125 31.2856 18.9497 32.4608 17.5 32.4608C16.0503 32.4608 14.875 31.2856 14.875 29.8358C14.875 29.0508 15.2196 28.3463 15.7658 27.8652L15.1284 24.3596C15.1266 24.3505 15.1249 24.3413 15.1234 24.332L13.7647 16.8595C13.7629 16.8505 13.7613 16.8413 13.7598 16.8321L13.1922 13.7108L11.5 13.7108C11.0858 13.7108 10.75 13.375 10.75 12.9608ZM15.3987 17.4608L16.4896 23.4608H27.6345C27.8101 23.4608 27.9802 23.3992 28.1151 23.2866C28.2499 23.1741 28.341 23.0178 28.3724 22.845L29.3513 17.4608H15.3987ZM17.5 28.7108C16.8787 28.7108 16.375 29.2145 16.375 29.8358C16.375 30.4571 16.8787 30.9608 17.5 30.9608C18.1213 30.9608 18.625 30.4571 18.625 29.8358C18.625 29.2145 18.1213 28.7108 17.5 28.7108ZM27.25 28.7108C26.6287 28.7108 26.125 29.2145 26.125 29.8358C26.125 30.4571 26.6287 30.9608 27.25 30.9608C27.8713 30.9608 28.375 30.4571 28.375 29.8358C28.375 29.2145 27.8713 28.7108 27.25 28.7108Z" fill="#343736"/>
</svg>
