<svg width="22" height="19" viewBox="0 0 22 19" fill="none" xmlns="http://www.w3.org/2000/svg">
<path d="M11 17.7733C11 17.7733 1.625 12.5233 1.625 6.14832C1.62519 5.02157 2.01561 3.92967 2.72989 3.05824C3.44416 2.18682 4.4382 1.58968 5.54299 1.36833C6.64778 1.14698 7.79514 1.3151 8.78999 1.8441C9.78484 2.3731 10.5658 3.23033 11 4.27004L11 4.27005C11.4342 3.23034 12.2152 2.37311 13.21 1.84411C14.2049 1.31511 15.3522 1.14699 16.457 1.36833C17.5618 1.58967 18.5558 2.18682 19.2701 3.05824C19.9844 3.92967 20.3748 5.02157 20.375 6.14832C20.375 12.5233 11 17.7733 11 17.7733Z" stroke="#343736" stroke-width="1.5" stroke-linecap="round" stroke-linejoin="round"/>
</svg>
