<svg width="21" height="21" viewBox="0 0 21 21" fill="none" xmlns="http://www.w3.org/2000/svg">
<path d="M9.95569 7.72363H11.9557V5.72363H9.95569M10.9557 18.7236C6.54569 18.7236 2.95569 15.1336 2.95569 10.7236C2.95569 6.31363 6.54569 2.72363 10.9557 2.72363C15.3657 2.72363 18.9557 6.31363 18.9557 10.7236C18.9557 15.1336 15.3657 18.7236 10.9557 18.7236ZM10.9557 0.723633C9.64247 0.723633 8.34211 0.982291 7.12885 1.48484C5.9156 1.98738 4.81321 2.72398 3.88462 3.65257C2.00926 5.52793 0.955688 8.07147 0.955688 10.7236C0.955688 13.3758 2.00926 15.9193 3.88462 17.7947C4.81321 18.7233 5.9156 19.4599 7.12885 19.9624C8.34211 20.465 9.64247 20.7236 10.9557 20.7236C13.6079 20.7236 16.1514 19.6701 18.0268 17.7947C19.9021 15.9193 20.9557 13.3758 20.9557 10.7236C20.9557 9.41041 20.697 8.11005 20.1945 6.8968C19.6919 5.68354 18.9553 4.58115 18.0268 3.65257C17.0982 2.72398 15.9958 1.98738 14.7825 1.48484C13.5693 0.982291 12.2689 0.723633 10.9557 0.723633ZM9.95569 15.7236H11.9557V9.72363H9.95569V15.7236Z" fill="#B3B6B5"/>
</svg>
