<svg width="24" height="25" viewBox="0 0 24 25" fill="none" xmlns="http://www.w3.org/2000/svg">
<path d="M15.75 12.0208H15C15 13.6776 13.6569 15.0208 12 15.0208V15.7708V16.5208C14.4853 16.5208 16.5 14.506 16.5 12.0208H15.75ZM12 15.7708V15.0208C10.3431 15.0208 9 13.6776 9 12.0208H8.25H7.5C7.5 14.506 9.51472 16.5208 12 16.5208V15.7708ZM8.25 12.0208H9C9 10.3639 10.3431 9.02075 12 9.02075V8.27075V7.52075C9.51472 7.52075 7.5 9.53547 7.5 12.0208H8.25ZM12 8.27075V9.02075C13.6569 9.02075 15 10.3639 15 12.0208H15.75H16.5C16.5 9.53547 14.4853 7.52075 12 7.52075V8.27075ZM7.875 3.39575V4.14575H16.125V3.39575V2.64575H7.875V3.39575ZM16.125 3.39575V4.14575C18.1961 4.14575 19.875 5.82468 19.875 7.89575H20.625H21.375C21.375 4.99626 19.0245 2.64575 16.125 2.64575V3.39575ZM20.625 7.89575H19.875V16.1458H20.625H21.375V7.89575H20.625ZM20.625 16.1458H19.875C19.875 18.2168 18.1961 19.8958 16.125 19.8958V20.6458V21.3958C19.0245 21.3958 21.375 19.0452 21.375 16.1458H20.625ZM16.125 20.6458V19.8958H7.875V20.6458V21.3958H16.125V20.6458ZM7.875 20.6458V19.8958C5.80393 19.8958 4.125 18.2168 4.125 16.1458H3.375H2.625C2.625 19.0452 4.9755 21.3958 7.875 21.3958V20.6458ZM3.375 16.1458H4.125V7.89575H3.375H2.625V16.1458H3.375ZM3.375 7.89575H4.125C4.125 5.82468 5.80393 4.14575 7.875 4.14575V3.39575V2.64575C4.9755 2.64575 2.625 4.99626 2.625 7.89575H3.375Z" fill="#111815"/>
<path d="M16.875 8.27075C17.4963 8.27075 18 7.76707 18 7.14575C18 6.52443 17.4963 6.02075 16.875 6.02075C16.2537 6.02075 15.75 6.52443 15.75 7.14575C15.75 7.76707 16.2537 8.27075 16.875 8.27075Z" fill="#111815"/>
</svg>
