<svg width="44" height="45" viewBox="0 0 44 45" fill="none" xmlns="http://www.w3.org/2000/svg">
<path d="M12.2559 30.3973C12.0487 30.7559 12.1714 31.2146 12.5301 31.4218C12.8887 31.6291 13.3475 31.5063 13.5547 31.1476L12.2559 30.3973ZM30.4455 31.1478C30.6527 31.5065 31.1115 31.6292 31.4701 31.422C31.8288 31.2148 31.9516 30.7561 31.7444 30.3975L30.4455 31.1478ZM13.5547 31.1476C14.4109 29.6656 15.6421 28.4349 17.1246 27.5793L16.3748 26.2802C14.6643 27.2673 13.2438 28.6872 12.2559 30.3973L13.5547 31.1476ZM17.1246 27.5793C18.607 26.7237 20.2885 26.2733 22.0002 26.2733L22.0002 24.7733C20.0253 24.7733 18.0852 25.293 16.3748 26.2802L17.1246 27.5793ZM22.0002 26.2733C23.7118 26.2733 25.3933 26.7238 26.8757 27.5794L27.6255 26.2803C25.9151 25.2931 23.975 24.7733 22.0002 24.7733L22.0002 26.2733ZM26.8757 27.5794C28.3581 28.435 29.5893 29.6657 30.4455 31.1478L31.7444 30.3975C30.7565 28.6874 29.336 27.2675 27.6255 26.2803L26.8757 27.5794ZM27.2501 19.5233C27.2501 22.4228 24.8996 24.7733 22.0002 24.7733V26.2733C25.7281 26.2733 28.7501 23.2512 28.7501 19.5233H27.2501ZM22.0002 24.7733C19.1006 24.7733 16.7501 22.4228 16.7501 19.5233H15.2501C15.2501 23.2513 18.2723 26.2733 22.0002 26.2733V24.7733ZM16.7501 19.5233C16.7501 16.6238 19.1006 14.2733 22.0001 14.2733V12.7733C18.2721 12.7733 15.2501 15.7954 15.2501 19.5233H16.7501ZM22.0001 14.2733C24.8995 14.2733 27.2501 16.6238 27.2501 19.5233H28.7501C28.7501 15.7954 25.728 12.7733 22.0001 12.7733V14.2733Z" fill="#343736"/>
</svg>
