<svg width="44" height="45" viewBox="0 0 44 45" fill="none" xmlns="http://www.w3.org/2000/svg">
<path d="M15.3127 28.4686C15.1249 28.8378 15.2719 29.2893 15.6411 29.4771C16.0103 29.6649 16.4619 29.5178 16.6497 29.1486L15.3127 28.4686ZM27.3503 29.1486C27.5381 29.5178 27.9896 29.6649 28.3588 29.4771C28.728 29.2893 28.8751 28.8378 28.6873 28.4686L27.3503 29.1486ZM30.25 22.1173C30.25 26.6737 26.5563 30.3673 22 30.3673V31.8673C27.3848 31.8673 31.75 27.5021 31.75 22.1173H30.25ZM22 30.3673C17.4437 30.3673 13.75 26.6737 13.75 22.1173H12.25C12.25 27.5021 16.6152 31.8673 22 31.8673V30.3673ZM13.75 22.1173C13.75 17.561 17.4437 13.8673 22 13.8673V12.3673C16.6152 12.3673 12.25 16.7325 12.25 22.1173H13.75ZM22 13.8673C26.5563 13.8673 30.25 17.561 30.25 22.1173H31.75C31.75 16.7325 27.3848 12.3673 22 12.3673V13.8673ZM16.6497 29.1486C17.1519 28.1613 17.9175 27.3321 18.8618 26.753L18.0776 25.4743C16.8973 26.1982 15.9404 27.2345 15.3127 28.4686L16.6497 29.1486ZM18.8618 26.753C19.8061 26.1738 20.8922 25.8673 22 25.8673L22 24.3673C20.6154 24.3673 19.2579 24.7504 18.0776 25.4743L18.8618 26.753ZM22 25.8673C23.1077 25.8673 24.1939 26.1738 25.1382 26.753L25.9224 25.4743C24.7421 24.7504 23.3845 24.3673 22 24.3673L22 25.8673ZM25.1382 26.753C26.0825 27.3321 26.8481 28.1612 27.3503 29.1486L28.6873 28.4686C28.0596 27.2345 27.1027 26.1981 25.9224 25.4743L25.1382 26.753ZM25 21.3673C25 23.0242 23.6568 24.3673 22 24.3673V25.8673C24.4853 25.8673 26.5 23.8526 26.5 21.3673H25ZM22 24.3673C20.3431 24.3673 19 23.0242 19 21.3673H17.5C17.5 23.8526 19.5147 25.8673 22 25.8673V24.3673ZM19 21.3673C19 19.7105 20.3431 18.3673 22 18.3673V16.8673C19.5147 16.8673 17.5 18.882 17.5 21.3673H19ZM22 18.3673C23.6569 18.3673 25 19.7105 25 21.3673H26.5C26.5 18.882 24.4853 16.8673 22 16.8673V18.3673Z" fill="#77A28D"/>
</svg>
