<svg width="23" height="15" viewBox="0 0 23 15" fill="none" xmlns="http://www.w3.org/2000/svg">
<path d="M11.75 4.5C12.5456 4.5 13.3087 4.81607 13.8713 5.37868C14.4339 5.94129 14.75 6.70435 14.75 7.5C14.75 8.29565 14.4339 9.05871 13.8713 9.62132C13.3087 10.1839 12.5456 10.5 11.75 10.5C10.9544 10.5 10.1913 10.1839 9.62868 9.62132C9.06607 9.05871 8.75 8.29565 8.75 7.5C8.75 6.70435 9.06607 5.94129 9.62868 5.37868C10.1913 4.81607 10.9544 4.5 11.75 4.5ZM11.75 0C16.75 0 21.02 3.11 22.75 7.5C21.02 11.89 16.75 15 11.75 15C6.75 15 2.48 11.89 0.75 7.5C2.48 3.11 6.75 0 11.75 0ZM2.93 7.5C3.73825 9.15031 4.99331 10.5407 6.55248 11.5133C8.11165 12.4858 9.9124 13.0013 11.75 13.0013C13.5876 13.0013 15.3883 12.4858 16.9475 11.5133C18.5067 10.5407 19.7617 9.15031 20.57 7.5C19.7617 5.84969 18.5067 4.45925 16.9475 3.48675C15.3883 2.51424 13.5876 1.99868 11.75 1.99868C9.9124 1.99868 8.11165 2.51424 6.55248 3.48675C4.99331 4.45925 3.73825 5.84969 2.93 7.5Z" fill="#343D39"/>
</svg>
