<svg width="40" height="41" viewBox="0 0 40 41" fill="none" xmlns="http://www.w3.org/2000/svg">
<g id="ep:food">
<path id="Vector" d="M4.9999 14.2725V14.25C4.99987 12.0277 5.65805 9.85508 6.8914 8.00638C8.12475 6.15768 9.87802 4.71568 11.93 3.86232C13.982 3.00895 16.2407 2.78245 18.4213 3.2114C20.6019 3.64034 22.6065 4.70551 24.1824 6.27251C25.4223 5.66054 26.8072 5.40324 28.1842 5.52903C29.5611 5.65483 30.8765 6.15882 31.985 6.98533C33.0935 7.81183 33.9519 8.92868 34.4654 10.2125C34.9789 11.4963 35.1276 12.897 34.8949 14.26C35.237 14.2918 35.5689 14.3937 35.8698 14.5594C36.1708 14.7251 36.4343 14.9511 36.644 15.2232C36.8538 15.4953 37.0051 15.8078 37.0887 16.141C37.1723 16.4742 37.1863 16.8211 37.1299 17.16C35.9999 23.9575 33.2049 28.26 28.7499 30.07V31.75C28.7499 32.7446 28.3548 33.6984 27.6516 34.4017C26.9483 35.1049 25.9945 35.5 24.9999 35.5H14.9999C14.0053 35.5 13.0515 35.1049 12.3483 34.4017C11.645 33.6984 11.2499 32.7446 11.2499 31.75V30.07C6.7949 28.26 3.9999 23.9575 2.8699 17.16C2.81537 16.8301 2.82756 16.4926 2.90576 16.1676C2.98397 15.8425 3.12659 15.5364 3.32519 15.2674C3.52379 14.9984 3.77433 14.7719 4.06199 14.6015C4.34965 14.431 4.66858 14.32 4.9999 14.275V14.2725ZM7.4999 14.25H9.9999C9.9999 12.5924 10.6584 11.0027 11.8305 9.8306C13.0026 8.65849 14.5923 8.00001 16.2499 8.00001C17.9075 8.00001 19.4972 8.65849 20.6693 9.8306C21.8414 11.0027 22.4999 12.5924 22.4999 14.25H24.9999C24.9999 11.9294 24.078 9.70377 22.4371 8.06283C20.7961 6.42189 18.5705 5.50001 16.2499 5.50001C13.9293 5.50001 11.7037 6.42189 10.0627 8.06283C8.42178 9.70377 7.4999 11.9294 7.4999 14.25ZM12.4999 14.25H19.9999C19.9999 13.2555 19.6048 12.3016 18.9016 11.5984C18.1983 10.8951 17.2445 10.5 16.2499 10.5C15.2553 10.5 14.3015 10.8951 13.5983 11.5984C12.895 12.3016 12.4999 13.2555 12.4999 14.25ZM29.6649 14.25H32.3424C32.5311 13.5112 32.5487 12.739 32.3938 11.9924C32.239 11.2457 31.9157 10.5443 31.4486 9.94151C30.9816 9.33872 30.3831 8.8505 29.6988 8.51405C29.0145 8.17759 28.2624 8.00178 27.4999 8.00001C26.8999 8.00001 26.3299 8.10501 25.7999 8.29751C26.2424 9.00751 26.6074 9.77251 26.8874 10.575C27.3636 10.4569 27.8639 10.4812 28.3264 10.6449C28.7889 10.8087 29.1931 11.1046 29.4889 11.496C29.7847 11.8873 29.959 12.357 29.9903 12.8466C30.0216 13.3362 29.9085 13.8242 29.6649 14.25ZM26.2499 30.5H13.7499V31.75C13.7499 32.0815 13.8816 32.3995 14.116 32.6339C14.3504 32.8683 14.6684 33 14.9999 33H24.9999C25.3314 33 25.6494 32.8683 25.8838 32.6339C26.1182 32.3995 26.2499 32.0815 26.2499 31.75V30.5ZM12.8699 28H27.1299C31.0949 26.725 33.6049 23.12 34.6649 16.75H5.3349C6.3949 23.12 8.9049 26.725 12.8699 28Z" fill="black"/>
</g>
</svg>
