<svg width="23" height="19" viewBox="0 0 23 19" fill="none" xmlns="http://www.w3.org/2000/svg">
<path d="M1.95569 1.99363L3.23569 0.723633L19.9557 17.4436L18.6857 18.7236L15.6057 15.6436C14.4557 16.0236 13.2357 16.2236 11.9557 16.2236C6.95569 16.2236 2.68569 13.1136 0.955688 8.72363C1.64569 6.96363 2.74569 5.41363 4.14569 4.18363L1.95569 1.99363ZM11.9557 5.72363C12.7513 5.72363 13.5144 6.0397 14.077 6.60231C14.6396 7.16492 14.9557 7.92798 14.9557 8.72363C14.9562 9.0642 14.8987 9.40237 14.7857 9.72363L10.9557 5.89363C11.277 5.78062 11.6151 5.72313 11.9557 5.72363ZM11.9557 1.22363C16.9557 1.22363 21.2257 4.33363 22.9557 8.72363C22.1391 10.7966 20.7523 12.596 18.9557 13.9136L17.5357 12.4836C18.9186 11.5271 20.034 10.2327 20.7757 8.72363C19.9673 7.0735 18.7122 5.68326 17.1531 4.71099C15.5939 3.73871 13.7932 3.2234 11.9557 3.22363C10.8657 3.22363 9.79569 3.40363 8.79569 3.72363L7.25569 2.19363C8.69569 1.57363 10.2857 1.22363 11.9557 1.22363ZM3.13569 8.72363C3.94403 10.3738 5.19914 11.764 6.75832 12.7363C8.3175 13.7086 10.1182 14.2239 11.9557 14.2236C12.6457 14.2236 13.3257 14.1536 13.9557 14.0136L11.6757 11.7236C10.9799 11.649 10.3305 11.3385 9.83566 10.8437C9.34081 10.3488 9.03027 9.69947 8.95569 9.00363L5.55569 5.59363C4.56569 6.44363 3.73569 7.50363 3.13569 8.72363Z" fill="#343D39"/>
</svg>
